<?xml version="1.0" standalone="no"?>
<!DOCTYPE svg PUBLIC "-//W3C//DTD SVG 20010904//EN"
 "http://www.w3.org/TR/2001/REC-SVG-20010904/DTD/svg10.dtd">
<svg version="1.0" xmlns="http://www.w3.org/2000/svg"
 width="569.000000pt" height="261.000000pt" viewBox="0 0 569.000000 261.000000"
 preserveAspectRatio="xMidYMid meet">
<g transform="translate(0.000000,261.000000) scale(0.100000,-0.100000)"
fill="#000000" stroke="none">
<path d="M360 2595 c-15 -18 -45 -21 -34 -3 4 7 3 8 -5 4 -6 -4 -66 -9 -132
-10 -123 -3 -146 -11 -134 -44 3 -7 0 -10 -5 -7 -6 4 -9 -19 -9 -59 1 -42 5
-66 13 -66 7 0 7 -3 1 -8 -6 -4 -11 -161 -14 -424 -2 -346 -1 -418 10 -419 8
0 5 -4 -6 -9 -11 -5 -14 -9 -7 -9 9 -1 11 -8 7 -22 -5 -16 -4 -19 6 -14 9 6
11 3 6 -8 -8 -21 7 -24 139 -31 110 -5 174 6 174 30 0 9 5 12 13 8 8 -5 8 -2
-2 9 -9 12 -10 17 -2 17 7 0 9 5 6 10 -3 6 0 10 7 10 9 0 9 3 -2 10 -8 5 -12
10 -8 10 4 0 3 13 -2 30 -5 16 -5 55 0 87 5 37 4 63 -3 71 -7 9 -6 20 2 38 13
30 14 45 1 24 -7 -11 -9 -2 -9 30 1 41 2 42 9 15 7 -29 3 131 -5 168 -6 31 18
13 52 -38 18 -26 38 -52 45 -56 7 -5 10 -9 6 -9 -5 0 1 -9 12 -20 12 -12 18
-26 13 -33 -11 -18 -13 -38 -2 -31 5 3 6 10 3 16 -4 6 2 6 15 -1 11 -7 21 -17
21 -24 0 -8 -3 -8 -9 1 -7 11 -9 11 -14 -1 -8 -21 3 -29 21 -14 12 10 16 9 20
-1 2 -7 13 -22 25 -33 11 -10 17 -19 12 -19 -9 0 28 -35 63 -58 12 -8 25 -12
29 -8 3 3 0 6 -8 6 -8 0 -3 6 11 13 14 7 34 27 45 44 14 22 26 31 41 28 13 -2
21 2 21 11 0 11 -3 11 -15 1 -12 -10 -12 -7 1 19 9 17 23 34 32 37 8 4 15 15
15 26 0 15 5 19 17 14 11 -4 14 -3 9 6 -5 7 -1 20 8 29 10 9 24 26 32 37 9 11
12 14 8 6 -5 -9 -3 -12 5 -7 6 4 9 11 6 15 -2 4 7 23 20 41 17 23 25 28 25 17
0 -9 -6 -17 -12 -17 -10 0 -10 -2 -1 -8 8 -5 12 -73 12 -242 1 -218 4 -281 17
-302 8 -13 292 -10 300 4 4 6 8 28 10 50 2 21 6 43 9 48 3 6 2 10 -3 10 -5 0
-8 210 -8 487 1 366 -2 490 -11 499 -7 6 -10 14 -8 16 3 3 -2 5 -10 5 -8 0
-15 -4 -15 -9 0 -14 -194 -10 -209 5 -8 6 -11 8 -8 2 3 -5 -6 -11 -20 -12 -14
0 -30 -7 -37 -13 -8 -10 -8 -11 2 -6 6 4 12 2 12 -3 0 -6 -4 -11 -10 -11 -5 0
-10 -6 -10 -14 0 -8 -21 -33 -47 -56 -27 -23 -39 -36 -29 -29 18 13 18 13 7
-9 -7 -12 -17 -20 -23 -16 -7 5 -8 2 -4 -5 5 -7 0 -21 -10 -32 -17 -19 -19
-19 -26 -2 -6 13 -7 10 -3 -9 5 -25 -8 -47 -18 -31 -2 5 -2 2 0 -5 4 -17 -32
-64 -41 -54 -4 3 -4 -1 -1 -9 3 -9 -2 -22 -12 -30 -16 -13 -17 -12 -5 2 10 14
9 19 -5 30 -15 11 -16 11 -6 -1 10 -11 9 -18 -5 -34 -9 -11 -11 -16 -4 -12 21
13 13 -4 -18 -34 -16 -16 -30 -37 -31 -47 0 -11 -3 -13 -6 -5 -2 6 -9 9 -15 6
-6 -4 -6 1 1 14 9 17 8 19 -8 15 -10 -3 -22 0 -25 6 -5 7 0 9 11 5 12 -4 11
-1 -4 8 -12 7 -23 18 -25 23 -2 6 -7 9 -12 7 -5 -2 -6 9 -4 23 5 22 3 23 -10
13 -13 -11 -15 -10 -9 5 4 10 3 16 -1 14 -4 -3 -18 9 -32 26 -14 17 -18 27
-10 22 8 -5 -2 9 -23 31 -44 45 -69 88 -59 99 4 5 2 5 -5 1 -14 -8 -67 69 -58
84 3 5 0 12 -6 16 -8 4 -7 9 2 15 11 7 11 9 1 9 -7 0 -10 5 -7 10 9 15 -1 12
-15 -5z m7 -12 c-4 -3 -2 -12 5 -20 8 -11 7 -12 -6 -7 -9 3 -16 9 -16 13 0 9
11 21 18 21 3 0 2 -3 -1 -7z m-12 -53 c51 -75 309 -420 315 -420 3 0 79 101
169 225 l164 225 128 0 129 0 0 -535 0 -535 -140 0 -141 0 3 320 c2 176 1 320
-2 319 -3 0 -68 -87 -145 -192 -111 -151 -146 -193 -165 -195 -22 -3 -43 21
-170 193 l-145 197 -3 -321 -2 -321 -140 0 -140 0 0 535 0 535 133 0 132 0 20
-30z"/>
<path d="M836 2038 c3 -5 10 -6 15 -3 13 9 11 12 -6 12 -8 0 -12 -4 -9 -9z"/>
<path d="M823 1995 c0 -8 4 -12 9 -9 5 3 6 10 3 15 -9 13 -12 11 -12 -6z"/>
<path d="M980 2596 c7 -7 13 -7 20 0 6 6 3 10 -10 10 -13 0 -16 -4 -10 -10z"/>
<path d="M1930 2599 c-25 -4 -53 -5 -62 -2 -10 2 -18 0 -18 -6 0 -15 -33 -14
-49 2 -10 10 -11 8 -5 -7 6 -16 4 -18 -11 -12 -11 4 -16 4 -13 0 10 -9 -62
-45 -75 -37 -6 4 -7 1 -3 -6 6 -8 2 -11 -10 -9 -11 2 -18 -2 -17 -9 3 -16 -34
-36 -52 -29 -9 3 -12 0 -9 -8 3 -7 -7 -21 -21 -30 -15 -10 -23 -22 -18 -29 4
-7 -2 -5 -12 3 -10 8 -16 10 -12 4 4 -7 0 -15 -9 -18 -8 -3 -13 -10 -10 -15 3
-5 -5 -16 -19 -25 -16 -11 -22 -22 -18 -33 5 -12 3 -14 -7 -8 -10 6 -12 4 -6
-10 4 -11 0 -25 -9 -35 -15 -16 -42 -94 -50 -145 -2 -11 -4 -54 -4 -95 -1 -52
-4 -70 -11 -60 -14 22 -12 2 4 -33 13 -28 18 -52 29 -120 2 -10 9 -22 16 -27
9 -5 10 -10 2 -14 -6 -4 -11 -12 -11 -18 0 -7 5 -7 14 1 11 9 15 8 20 -5 3 -9
3 -21 -1 -26 -3 -6 -1 -8 4 -5 6 4 14 0 17 -9 10 -25 7 -27 -11 -13 -16 13
-17 12 -5 -3 8 -10 20 -14 29 -11 10 4 14 2 10 -4 -4 -6 0 -14 9 -17 8 -3 12
-11 8 -17 -4 -7 -3 -9 3 -6 5 4 16 -5 23 -18 7 -13 18 -22 23 -18 6 4 7 1 3
-6 -5 -7 -14 -10 -21 -7 -8 3 -18 -1 -24 -8 -17 -20 -1 -27 24 -10 29 19 54 9
49 -19 -2 -12 -2 -16 2 -9 6 13 25 17 22 5 -3 -16 15 -43 29 -43 8 0 12 -4 8
-9 -3 -5 0 -13 6 -17 7 -4 9 -3 6 3 -4 6 1 17 10 24 12 10 14 10 9 2 -5 -9 0
-13 14 -13 13 0 19 -4 14 -12 -4 -7 -3 -8 5 -4 6 4 22 1 34 -6 21 -14 123 -34
221 -43 27 -2 83 2 123 10 41 8 79 13 86 11 7 -1 8 -1 4 2 -5 2 10 13 33 23
23 10 47 16 53 12 5 -3 7 -1 4 4 -7 12 14 23 43 23 10 0 27 11 38 25 11 13 22
22 25 19 3 -3 8 4 12 15 3 12 11 21 16 21 6 0 7 -6 3 -12 -5 -9 -2 -9 9 1 18
15 23 26 7 16 -5 -3 -10 -1 -10 4 0 6 6 11 14 11 7 0 19 7 26 15 7 9 19 14 26
11 8 -3 13 0 11 7 -1 7 4 11 11 9 8 -1 11 2 7 8 -4 6 -3 17 2 23 4 7 1 6 -8
-3 -8 -8 -28 -26 -45 -40 l-29 -25 28 31 c15 16 27 34 27 38 0 4 10 22 22 39
13 18 23 35 23 39 0 3 3 10 8 14 4 4 7 16 7 26 0 12 4 16 12 12 6 -4 8 -3 5 3
-4 6 0 39 7 74 11 54 14 59 18 34 3 -16 6 3 7 43 0 40 -3 71 -7 68 -5 -3 -6
16 -2 42 3 26 3 59 -1 72 -6 22 -7 21 -9 -10 -2 -32 -3 -30 -14 21 -7 30 -16
61 -21 69 -4 7 -9 25 -11 39 -1 14 -2 30 -3 34 -1 5 -6 5 -12 1 -8 -4 -7 -9 2
-16 11 -8 11 -9 -1 -5 -8 2 -14 11 -12 21 2 9 -4 16 -12 16 -9 0 -13 6 -10 14
3 8 -4 21 -16 29 -14 9 -19 20 -15 28 5 7 4 10 -2 6 -12 -8 -46 27 -36 36 3 4
-3 7 -15 7 -11 0 -25 6 -29 13 -13 20 -67 63 -59 47 6 -12 5 -12 -6 1 -7 9
-19 14 -27 11 -8 -3 -11 0 -7 6 3 6 1 14 -5 18 -8 4 -9 3 -5 -4 9 -15 1 -15
-25 -1 -11 5 -17 13 -15 18 3 4 -12 8 -32 9 -20 2 -41 7 -47 12 -7 6 -15 7
-18 4 -3 -3 -11 -3 -17 1 -17 10 -147 13 -200 4z m234 -35 c153 -39 292 -150
359 -285 46 -94 59 -153 59 -259 0 -157 -58 -287 -177 -399 -108 -101 -240
-151 -395 -151 -169 0 -306 56 -421 170 -136 136 -189 327 -144 518 45 191
208 354 405 406 75 20 237 20 314 0z m-488 -1025 c19 -22 19 -22 -3 -10 -24
12 -39 31 -25 31 5 0 17 -10 28 -21z"/>
<path d="M2267 2489 c7 -7 15 -10 18 -7 3 3 -2 9 -12 12 -14 6 -15 5 -6 -5z"/>
<path d="M1895 2310 c-61 -24 -126 -86 -157 -149 -19 -38 -23 -62 -23 -136 0
-78 4 -97 27 -141 54 -104 147 -158 269 -158 88 0 144 23 204 81 111 108 117
305 12 428 -14 17 -49 44 -78 60 -71 38 -179 45 -254 15z m105 -10 c-9 -6 -10
-10 -3 -10 6 0 15 5 18 10 8 13 35 13 35 1 0 -5 -8 -11 -17 -13 -10 -2 11 -4
46 -5 74 -2 112 -22 106 -55 -3 -16 -2 -19 6 -11 9 9 17 4 33 -15 46 -56 63
-145 45 -235 -6 -28 -12 -58 -13 -65 -1 -7 -8 -18 -16 -25 -7 -6 -10 -7 -7 -1
3 6 0 11 -8 11 -13 0 -13 -3 0 -17 21 -23 6 -34 -19 -13 -12 10 -15 11 -8 3
14 -17 16 -34 2 -25 -6 4 -7 -1 -3 -11 5 -13 2 -16 -8 -12 -8 3 -23 0 -34 -8
-10 -8 -14 -14 -9 -14 6 0 16 6 23 13 11 10 13 9 7 -1 -24 -42 -204 -67 -255
-35 -13 9 -20 10 -16 3 4 -6 -7 -4 -26 5 -39 20 -52 31 -26 22 11 -4 16 -3 12
3 -3 6 -15 10 -26 10 -13 0 -18 4 -13 12 5 7 2 9 -7 6 -8 -3 -22 6 -34 21 -12
17 -14 22 -4 16 8 -5 6 -2 -4 7 -27 25 -44 93 -41 163 4 80 8 100 24 100 7 0
15 7 17 15 4 13 3 13 -6 0 -9 -12 -11 -11 -8 7 4 29 36 64 51 56 6 -3 8 -2 3
2 -10 12 43 65 64 65 10 0 21 5 25 11 3 6 17 8 31 4 14 -3 22 -2 20 2 -3 4 9
9 26 10 24 2 28 0 17 -7z"/>
<path d="M1841 2246 c-9 -11 -9 -16 0 -22 7 -4 9 -3 5 4 -3 5 0 12 6 15 7 2
10 7 7 11 -3 4 -12 0 -18 -8z"/>
<path d="M1789 2183 c-13 -16 -12 -17 4 -4 9 7 17 15 17 17 0 8 -8 3 -21 -13z"/>
<path d="M1826 1866 c6 -15 4 -17 -6 -11 -9 6 -11 4 -5 -4 5 -9 10 -10 18 -2
8 8 7 14 -2 24 -10 10 -11 8 -5 -7z"/>
<path d="M3108 2589 c-10 -5 -47 -10 -83 -11 -47 -1 -68 -5 -74 -16 -4 -8 -20
-14 -34 -14 -15 0 -24 -4 -21 -9 2 -5 -6 -11 -20 -15 -13 -3 -27 -12 -30 -20
-3 -8 -12 -14 -21 -14 -8 0 -15 -4 -15 -9 0 -5 -19 -29 -42 -52 -24 -24 -37
-40 -31 -36 9 6 11 3 7 -7 -3 -9 -11 -13 -17 -9 -6 3 -7 1 -3 -5 4 -6 0 -25
-9 -42 -9 -17 -13 -35 -10 -40 3 -6 -1 -7 -9 -4 -9 3 -16 1 -16 -5 0 -6 4 -11
8 -11 5 0 8 -15 8 -34 -1 -19 -5 -31 -10 -28 -5 3 -6 -2 -3 -12 16 -40 20 -69
9 -62 -6 4 -8 -2 -5 -14 3 -11 10 -20 15 -20 6 0 8 -11 6 -25 -3 -13 -2 -23 1
-21 3 2 13 -11 22 -30 9 -18 13 -31 8 -29 -16 11 -18 -13 -2 -26 12 -10 14
-10 9 -1 -10 17 0 15 24 -5 25 -21 27 -41 3 -22 -16 13 -17 12 -4 -4 8 -10 21
-15 29 -12 12 4 12 2 4 -8 -14 -17 -3 -31 13 -17 8 7 18 3 31 -12 10 -12 13
-18 5 -13 -10 6 -12 2 -6 -15 5 -17 4 -21 -5 -15 -8 5 -11 4 -6 -3 8 -13 -14
-63 -25 -56 -5 3 -6 -2 -3 -10 3 -9 2 -16 -4 -16 -5 0 -13 -11 -16 -25 -4 -14
-11 -23 -16 -20 -5 3 -7 -4 -5 -15 2 -11 0 -18 -4 -15 -13 7 -34 -23 -28 -39
3 -8 3 -16 -1 -18 -4 -2 -18 -24 -31 -50 -13 -27 -28 -48 -32 -48 -5 0 -5 -7
-2 -17 5 -12 3 -14 -8 -8 -8 5 -5 -1 5 -13 18 -21 28 -22 173 -22 105 0 153 3
153 11 0 6 7 8 16 5 8 -3 12 -2 9 4 -7 11 29 85 46 96 8 5 9 3 4 -6 -5 -9 -4
-11 4 -6 7 5 9 16 5 28 -4 15 -3 18 6 13 9 -5 11 -4 6 4 -8 12 18 44 27 34 4
-3 4 6 1 20 -3 19 1 29 16 37 11 6 18 15 14 21 -3 5 0 16 6 24 7 8 9 15 6 15
-4 0 0 7 9 16 16 17 118 24 133 10 8 -9 11 -58 11 -161 -1 -120 1 -139 14
-152 16 -16 283 -21 299 -5 6 6 11 27 11 46 1 28 5 35 17 31 12 -4 12 -3 -2 8
-14 12 -16 60 -17 507 -1 329 -5 498 -12 505 -6 6 -94 9 -255 7 -170 -2 -244
0 -239 7 8 13 5 13 -17 0z m502 -564 l0 -535 -137 0 -138 0 3 170 2 170 -87 0
-88 0 -19 -33 c-10 -17 -52 -94 -93 -169 l-75 -138 -149 0 -150 0 42 78 c23
42 71 128 106 191 35 62 63 117 63 121 0 5 -9 11 -20 15 -33 10 -108 103 -129
161 -29 75 -29 203 -1 278 37 98 131 182 238 211 33 9 133 13 340 14 l292 1 0
-535z"/>
<path d="M2865 2459 c-4 -6 -5 -12 -2 -15 2 -3 7 2 10 11 7 17 1 20 -8 4z"/>
<path d="M3065 2301 c-47 -21 -65 -53 -65 -114 0 -92 45 -117 214 -117 l124 0
1 125 1 125 -117 0 c-93 0 -127 -4 -158 -19z m244 -48 c0 -21 2 -64 5 -95 2
-32 0 -55 -4 -53 -5 3 -11 -1 -13 -7 -4 -10 -8 -10 -15 1 -5 7 -18 11 -28 7
-38 -11 -172 -10 -186 2 -8 6 -18 10 -21 7 -4 -3 -5 -2 -2 2 3 3 -1 13 -7 21
-15 17 -20 102 -7 102 5 0 8 5 7 12 -5 21 64 36 160 35 50 -1 92 2 92 6 0 5 4
6 9 3 5 -3 9 -23 10 -43z"/>
<path d="M3070 2116 c0 -2 7 -7 16 -10 8 -3 12 -2 9 4 -6 10 -25 14 -25 6z"/>
<path d="M2776 2298 c3 -5 10 -6 15 -3 13 9 11 12 -6 12 -8 0 -12 -4 -9 -9z"/>
<path d="M2980 2086 c0 -2 7 -7 16 -10 8 -3 12 -2 9 4 -6 10 -25 14 -25 6z"/>
<path d="M3660 2550 c-9 -6 -10 -10 -3 -10 6 0 15 5 18 10 8 12 4 12 -15 0z"/>
<path d="M916 2503 c-6 -14 -5 -15 5 -6 7 7 10 15 7 18 -3 3 -9 -2 -12 -12z"/>
<path d="M2825 2510 c-3 -5 -1 -10 4 -10 6 0 11 5 11 10 0 6 -2 10 -4 10 -3 0
-8 -4 -11 -10z"/>
<path d="M425 2490 c-3 -5 -1 -10 4 -10 6 0 11 5 11 10 0 6 -2 10 -4 10 -3 0
-8 -4 -11 -10z"/>
<path d="M836 2433 c-6 -14 -5 -15 5 -6 7 7 10 15 7 18 -3 3 -9 -2 -12 -12z"/>
<path d="M1450 2311 c0 -6 4 -13 10 -16 6 -3 7 1 4 9 -7 18 -14 21 -14 7z"/>
<path d="M609 2263 c-13 -16 -12 -17 4 -4 9 7 17 15 17 17 0 8 -8 3 -21 -13z"/>
<path d="M1389 2078 c-5 -13 -7 -79 -2 -74 8 7 14 76 8 76 -3 0 -5 -1 -6 -2z"/>
<path d="M565 1770 c3 -5 8 -10 11 -10 2 0 4 5 4 10 0 6 -5 10 -11 10 -5 0 -7
-4 -4 -10z"/>
<path d="M745 1751 c-6 -11 13 -26 22 -17 4 3 1 6 -6 6 -7 0 -9 5 -6 10 3 6 4
10 1 10 -3 0 -7 -4 -11 -9z"/>
<path d="M160 1172 c-46 -2 -91 -8 -99 -15 -12 -10 -13 -9 -7 2 6 9 5 12 -4 9
-9 -3 -13 -19 -12 -44 8 -223 7 -341 -2 -353 -8 -11 -8 -13 2 -7 10 6 12 -10
10 -73 -1 -45 -6 -81 -10 -81 -4 0 -7 -19 -7 -42 l2 -43 7 40 c4 22 6 -71 4
-208 -1 -136 -6 -252 -10 -259 -4 -6 -3 -8 3 -5 9 6 28 -18 25 -33 0 -3 61 -5
137 -5 116 0 142 3 166 19 22 14 25 20 14 28 -11 7 -11 11 -1 15 17 7 17 139
0 146 -9 4 -9 8 -3 14 6 4 10 31 10 60 1 29 -3 47 -7 40 -5 -8 -8 -7 -8 6 0 9
4 17 8 17 10 0 6 225 -4 242 -4 7 5 2 19 -11 29 -26 35 -37 15 -25 -7 4 3 -11
22 -32 72 -79 85 -96 74 -92 -7 2 -12 -1 -12 -7 -1 -5 5 -9 11 -8 19 4 67 -71
62 -96 -2 -12 0 -19 6 -16 5 4 9 2 9 -4 0 -6 7 -7 17 -4 12 5 14 3 8 -7 -5 -8
-4 -11 3 -6 10 6 27 -10 27 -28 0 -13 43 -18 50 -6 9 15 27 12 19 -2 -4 -8 -3
-10 2 -5 5 5 10 13 10 18 1 5 2 12 3 17 0 4 15 23 32 42 50 58 69 87 61 95 -4
5 1 5 10 2 12 -4 15 -2 11 9 -6 17 8 18 26 2 10 -11 11 -9 5 6 -6 15 -4 17 6
11 9 -5 11 -4 6 4 -4 6 -13 8 -19 4 -8 -5 -8 -2 0 9 7 8 10 18 6 22 -4 4 5 5
21 2 27 -5 28 -4 11 13 -12 14 -13 21 -4 27 8 5 10 3 4 -6 -5 -9 -4 -11 3 -6
7 4 12 12 12 18 0 5 11 23 23 38 l24 28 0 -275 c1 -186 5 -282 12 -297 11 -20
18 -21 148 -19 109 2 140 6 152 18 14 14 16 68 16 438 0 232 3 402 7 377 6
-43 6 -43 2 5 -13 140 -15 197 -6 191 12 -7 2 41 -14 68 -10 17 -24 18 -145
16 -167 -2 -159 -2 -153 -12 3 -4 0 -8 -6 -8 -6 0 -9 -4 -6 -8 2 -4 -11 -25
-30 -47 -19 -22 -34 -47 -34 -55 0 -13 -1 -13 -11 0 -9 13 -10 13 -8 0 3 -28
-1 -40 -12 -38 -6 2 -22 -15 -35 -37 -12 -22 -28 -39 -34 -37 -6 1 -10 -3 -9
-10 3 -20 -12 -49 -22 -42 -5 3 -9 -2 -9 -11 0 -8 -7 -18 -15 -21 -8 -4 -12
-10 -9 -15 3 -5 0 -9 -7 -9 -7 0 -9 -3 -6 -6 4 -4 -5 -20 -18 -36 -14 -16 -25
-34 -25 -40 0 -6 -6 -6 -15 2 -8 7 -12 17 -8 23 3 6 1 7 -5 3 -7 -4 -12 -1
-12 6 0 7 -9 19 -20 25 -11 7 -27 27 -36 45 -9 18 -23 37 -30 41 -8 4 -14 12
-14 18 0 5 -11 22 -25 37 -14 15 -23 33 -20 40 2 6 -1 12 -8 12 -7 0 -18 5
-25 12 -9 9 -8 16 6 32 9 11 12 16 6 13 -7 -4 -15 0 -18 9 -4 9 -13 14 -21 10
-10 -4 -19 2 -24 17 -5 12 -20 34 -34 49 -14 15 -23 29 -20 31 7 8 -102 12
-197 9z m216 -80 c22 -31 93 -128 157 -214 63 -86 120 -164 125 -174 7 -13 42
30 177 215 l167 231 129 0 129 0 0 -535 0 -535 -141 0 -140 0 3 326 c3 283 1
323 -11 304 -8 -12 -70 -96 -139 -188 -68 -92 -126 -173 -129 -179 -3 -7 -17
-13 -32 -13 -22 0 -46 28 -171 197 l-145 196 -3 -321 -2 -322 -140 0 -140 0 0
535 0 535 133 0 132 -1 41 -57z m77 -46 c4 -10 1 -13 -8 -9 -8 3 -12 9 -9 14
7 12 11 11 17 -5z m142 -684 c-8 -8 -25 10 -19 20 4 6 9 5 15 -3 4 -7 6 -15 4
-17z m-218 -214 c-2 -13 -4 -3 -4 22 0 25 2 35 4 23 2 -13 2 -33 0 -45z"/>
<path d="M859 903 c-13 -16 -12 -17 4 -4 9 7 17 15 17 17 0 8 -8 3 -21 -13z"/>
<path d="M1856 1173 c-1 -1 -16 -3 -33 -5 -18 -1 -29 -6 -26 -12 4 -5 -1 -7
-10 -3 -9 3 -19 1 -23 -5 -4 -7 -3 -8 4 -4 7 4 12 3 12 -3 0 -5 -4 -12 -10
-16 -5 -3 -7 -12 -3 -20 3 -8 0 -15 -7 -15 -6 0 -8 -4 -5 -10 3 -5 1 -10 -5
-10 -7 0 -10 -7 -7 -15 4 -8 2 -17 -3 -20 -6 -4 -10 -15 -10 -25 0 -14 -5 -18
-17 -14 -13 4 -14 3 -5 -3 9 -7 10 -17 1 -42 -9 -25 -14 -30 -21 -19 -8 10 -9
9 -4 -4 5 -18 -39 -156 -57 -173 -7 -7 -7 -5 -2 4 5 9 4 12 -3 7 -6 -4 -8 -14
-5 -23 4 -10 2 -14 -4 -10 -5 3 -9 -3 -8 -16 1 -12 -3 -25 -8 -29 -6 -3 -11
-17 -13 -30 -4 -42 -5 -43 -15 -23 -7 17 -8 15 -7 -10 2 -41 -32 -141 -42
-124 -6 8 -10 1 -12 -22 -2 -24 -7 -33 -18 -31 -12 3 -13 1 -2 -9 15 -16 16
-33 0 -23 -7 5 -9 2 -5 -9 4 -11 2 -14 -9 -10 -7 3 -14 0 -14 -7 0 -6 -5 -8
-12 -4 -7 4 -8 3 -4 -4 4 -6 13 -9 21 -5 11 4 13 1 9 -11 -3 -9 -11 -13 -17
-9 -6 4 -8 -2 -5 -15 4 -12 3 -20 -2 -17 -7 4 -20 -36 -25 -78 -1 -10 -11 -25
-21 -33 -11 -9 -13 -13 -7 -9 9 4 11 1 7 -9 -3 -9 -10 -13 -15 -10 -5 3 -6 -2
-3 -10 3 -8 -2 -29 -11 -46 -9 -18 -13 -39 -9 -48 4 -10 7 -19 6 -22 -1 -10
323 0 326 10 2 6 9 7 15 4 9 -5 9 -4 1 5 -13 14 -7 51 7 51 5 0 6 -8 2 -17 -3
-10 -3 -15 2 -11 4 4 9 20 11 35 5 51 27 118 42 129 9 7 82 12 188 13 163 2
173 1 183 -18 6 -11 8 -28 5 -38 -5 -15 -4 -15 5 -3 8 12 12 8 18 -20 4 -19 6
-39 5 -43 -3 -9 33 -64 57 -87 13 -13 43 -16 161 -15 132 0 146 2 156 19 9 15
8 28 -3 54 -8 20 -13 46 -10 59 3 18 1 21 -8 13 -18 -15 -28 29 -12 49 11 14
10 14 -5 2 -18 -13 -22 -7 -17 25 0 4 -5 10 -12 14 -7 5 -13 17 -14 28 -1 11
-7 27 -14 36 -7 9 -11 22 -8 30 3 8 -1 20 -9 26 -17 15 -19 34 -1 25 6 -4 5
-1 -4 7 -21 17 -60 94 -52 102 3 3 1 11 -5 19 -6 7 -9 24 -6 38 3 19 3 20 -4
5 -7 -15 -12 -8 -30 39 -12 31 -22 66 -22 76 0 11 -4 17 -10 14 -6 -3 -7 1 -4
9 3 9 1 16 -6 16 -6 0 -9 8 -6 18 3 9 -8 40 -24 67 -41 69 -59 111 -62 143 -2
15 -9 32 -16 37 -7 6 -14 20 -16 32 -3 11 -12 35 -20 52 -9 17 -15 36 -14 43
2 10 -31 14 -140 18 -79 3 -145 4 -146 3z m413 -406 c126 -311 203 -498 278
-674 4 -10 -29 -13 -149 -13 l-153 0 -40 107 -40 108 -204 0 -203 0 -40 -107
-40 -108 -150 0 c-82 0 -148 4 -146 8 2 5 99 246 217 535 l214 527 151 0 151
0 154 -383z"/>
<path d="M1820 1020 c-9 -6 -10 -10 -3 -10 6 0 15 5 18 10 8 12 4 12 -15 0z"/>
<path d="M1930 926 c0 -2 8 -10 18 -17 15 -13 16 -12 3 4 -13 16 -21 21 -21
13z"/>
<path d="M1985 921 c-3 -5 -2 -12 3 -15 5 -3 9 1 9 9 0 17 -3 19 -12 6z"/>
<path d="M1956 849 c-36 -100 -105 -288 -111 -301 -7 -17 2 -18 115 -18 112 0
122 1 115 18 -4 9 -29 82 -57 162 -28 80 -52 147 -54 149 -2 2 -6 -2 -8 -10z
m20 -100 c1 -8 2 -22 3 -32 0 -10 6 -15 11 -12 6 4 9 3 8 -2 -1 -4 3 -18 10
-29 6 -12 8 -24 4 -28 -3 -4 -2 -10 4 -14 6 -4 14 -18 18 -32 6 -19 5 -21 -3
-10 -9 13 -11 13 -11 -2 0 -10 5 -18 10 -18 6 0 10 -3 10 -7 0 -5 -25 -9 -55
-11 -40 -2 -55 1 -55 10 0 8 -3 9 -8 3 -13 -18 -31 -15 -29 5 1 11 8 20 17 20
12 0 12 2 2 9 -11 7 -11 16 -1 50 7 22 16 41 21 41 4 0 8 5 8 11 0 5 -4 7 -10
4 -6 -3 -7 1 -4 9 3 9 10 13 16 10 5 -3 9 2 8 12 -1 11 -2 23 -1 27 2 14 26 1
27 -14z"/>
<path d="M1968 563 c7 -3 16 -2 19 1 4 3 -2 6 -13 5 -11 0 -14 -3 -6 -6z"/>
<path d="M2066 757 c3 -10 9 -15 12 -12 3 3 0 11 -7 18 -10 9 -11 8 -5 -6z"/>
<path d="M2210 299 c0 -5 5 -7 10 -4 6 3 10 8 10 11 0 2 -4 4 -10 4 -5 0 -10
-5 -10 -11z"/>
<path d="M4046 1173 c-1 -1 -54 -3 -118 -4 -116 -1 -116 -1 -113 -25 1 -13 -2
-21 -7 -17 -6 3 -7 -3 -3 -17 4 -13 3 -20 -2 -17 -9 6 -6 -56 4 -83 11 -30 8
-62 -7 -70 -8 -5 -10 -10 -5 -10 6 0 11 -105 12 -291 2 -189 -1 -288 -7 -284
-6 3 -10 -4 -10 -17 0 -18 2 -20 10 -8 7 11 10 7 10 -17 0 -17 -6 -34 -12 -37
-10 -5 -10 -7 0 -12 8 -4 12 -28 12 -70 0 -38 -4 -63 -9 -59 -5 3 -13 0 -17
-6 -4 -7 -3 -9 2 -6 6 3 16 2 24 -4 13 -7 12 -9 -2 -9 -10 0 -18 -4 -18 -10 0
-5 8 -6 18 -3 14 6 15 4 5 -9 -11 -13 -7 -16 25 -25 20 -6 57 -10 82 -8 25 1
77 3 117 4 49 1 76 6 87 16 13 13 15 69 16 402 0 212 3 390 6 394 6 10 403 12
428 3 9 -3 13 -11 9 -17 -3 -6 -1 -7 5 -3 6 4 8 14 5 23 -4 10 -2 14 5 9 19
-11 23 11 23 131 0 75 5 123 12 132 10 12 9 13 -2 7 -8 -5 -16 -4 -20 3 -5 7
-93 12 -285 13 -153 2 -279 2 -280 1z m554 -145 l0 -123 -245 3 -245 3 0 -416
0 -415 -140 0 -140 0 0 535 0 535 385 0 385 0 0 -122z"/>
<path d="M5126 1173 c-1 -1 -54 -3 -119 -4 -65 -1 -114 -5 -111 -10 3 -5 0 -9
-5 -9 -6 0 -11 -3 -10 -7 2 -15 -14 -53 -22 -53 -4 0 -13 -10 -20 -21 -9 -17
-8 -20 3 -13 8 5 6 -3 -6 -20 -10 -16 -13 -26 -7 -22 7 5 7 -2 0 -24 -12 -34
-24 -42 -14 -9 5 15 4 19 -4 15 -6 -4 -11 -16 -11 -26 0 -27 -11 -51 -21 -44
-5 3 -6 -2 -3 -10 3 -8 -2 -39 -12 -68 -16 -47 -18 -50 -24 -28 -6 21 -7 19
-11 -17 -2 -23 -1 -39 3 -37 6 4 -19 -44 -67 -130 -9 -15 -12 -25 -6 -22 6 4
11 3 11 -3 0 -5 -4 -13 -10 -16 -5 -3 -10 -15 -10 -25 0 -10 -7 -25 -15 -33
-8 -8 -12 -17 -9 -20 3 -2 -6 -29 -20 -58 -14 -29 -26 -58 -26 -65 0 -6 -7
-14 -15 -18 -8 -3 -15 -16 -15 -30 0 -33 -38 -119 -49 -112 -5 3 -9 -9 -9 -27
0 -19 -9 -52 -21 -75 -23 -46 -19 -72 13 -73 107 -3 303 -3 300 0 -2 3 5 14
16 26 11 12 22 36 23 52 1 20 6 29 15 26 8 -4 12 6 12 30 0 20 6 42 13 49 8 7
12 18 10 25 -3 9 40 12 166 12 116 0 171 -3 171 -11 0 -7 5 -7 14 1 18 15 31
-5 41 -62 4 -22 11 -34 18 -30 6 4 8 0 4 -11 -5 -11 -3 -15 5 -10 8 5 9 2 5
-9 -4 -10 -2 -17 4 -17 6 0 9 -7 5 -15 -3 -8 -1 -15 4 -15 6 0 10 -7 10 -15 0
-22 28 -25 201 -28 l156 -2 -4 30 c-2 17 -8 31 -13 33 -6 2 -10 8 -10 13 0 6
4 8 9 4 5 -3 13 0 17 6 4 7 3 9 -3 6 -12 -7 -50 30 -40 39 3 3 -8 29 -25 57
-38 65 -51 97 -38 97 6 0 10 5 10 11 0 5 -4 8 -9 4 -12 -7 -19 4 -25 40 -3 16
-10 31 -16 35 -8 5 -15 36 -19 83 -1 5 -6 5 -12 1 -8 -4 -8 0 0 15 9 16 9 21
0 19 -6 -2 -14 4 -19 12 -30 59 -47 110 -45 139 2 31 1 32 -12 16 -7 -11 -13
-14 -13 -8 0 6 -3 20 -6 30 -5 15 -4 15 5 3 6 -8 11 -10 11 -5 0 6 -9 19 -21
28 -11 10 -18 25 -15 33 4 10 2 12 -6 8 -8 -5 -9 -2 -5 9 3 10 3 17 -2 17 -4
0 -7 10 -7 23 1 12 -4 21 -11 20 -7 -2 -10 3 -7 11 3 8 0 17 -5 21 -6 3 -9 11
-6 16 4 5 1 9 -4 9 -6 0 -14 18 -17 40 -4 22 -10 40 -15 40 -5 0 -9 7 -9 15 0
8 -5 15 -11 15 -7 0 -9 10 -7 25 3 13 2 22 -2 20 -5 -3 -11 2 -14 11 -3 8 -2
13 3 10 5 -3 11 1 14 9 4 9 1 12 -8 9 -7 -3 -19 4 -25 16 -10 18 -10 21 2 15
9 -6 10 -5 3 3 -8 8 -112 22 -119 15z m247 -416 c87 -215 184 -456 217 -535
l58 -143 -150 3 -151 3 -42 105 -42 105 -204 0 -203 0 -41 -107 -40 -108 -147
0 c-82 0 -148 1 -148 3 0 5 72 183 245 607 97 239 180 441 182 448 4 9 45 12
157 12 l151 0 158 -393z"/>
<path d="M5106 883 c-6 -14 -5 -15 5 -6 7 7 10 15 7 18 -3 3 -9 -2 -12 -12z"/>
<path d="M5050 846 c0 -11 -72 -216 -105 -298 -7 -17 3 -18 115 -18 112 0 122
1 115 18 -28 70 -105 289 -105 299 0 7 -4 13 -10 13 -5 0 -10 -6 -10 -14z m15
-74 c2 -16 18 -57 26 -62 4 -3 9 -19 11 -35 2 -17 9 -36 16 -44 7 -7 11 -20 8
-27 -3 -8 -1 -14 4 -14 6 0 10 -4 10 -10 0 -5 -15 -11 -32 -11 l-33 -2 35 -7
c33 -7 32 -7 -15 -9 -28 0 -56 4 -63 11 -7 7 -12 8 -12 2 0 -5 -10 -10 -22
-11 -13 0 -17 1 -10 4 6 3 12 12 12 21 0 15 -2 15 -11 2 -9 -12 -10 -12 -5 3
3 10 6 23 6 28 0 6 4 8 8 5 4 -2 9 3 10 12 5 55 20 94 32 87 5 -3 12 0 16 6 5
8 3 9 -6 4 -10 -6 -11 -3 -6 16 4 13 8 30 8 37 1 12 13 7 13 -6z"/>
<path d="M5048 563 c7 -3 16 -2 19 1 4 3 -2 6 -13 5 -11 0 -14 -3 -6 -6z"/>
<path d="M2656 1161 c-8 -12 -9 -1072 -1 -1092 4 -11 31 -14 146 -12 77 1 147
4 155 7 11 4 14 40 14 206 0 184 1 200 18 200 9 1 85 1 167 2 l150 0 2 -193
c1 -147 5 -195 16 -206 10 -10 51 -14 154 -16 78 -1 140 0 137 2 -2 2 6 12 18
22 11 11 17 19 12 19 -5 0 -9 223 -9 534 l0 534 -156 1 c-127 2 -158 -1 -162
-12 -3 -8 -6 -95 -7 -193 0 -117 -4 -181 -12 -185 -19 -12 -312 -8 -320 4 -4
7 -8 96 -8 199 l0 186 -154 1 c-92 1 -157 -2 -160 -8z m286 -211 l-3 -200 201
0 201 0 -3 200 -3 200 138 0 137 0 0 -535 0 -535 -137 0 -138 0 3 210 3 210
-201 0 -201 0 1 -208 2 -207 -136 -3 -136 -3 0 536 0 535 138 0 137 0 -3 -200z"/>
<path d="M3660 1120 c-9 -6 -10 -10 -3 -10 6 0 15 5 18 10 8 12 4 12 -15 0z"/>
<path d="M420 1079 c0 -5 5 -7 10 -4 6 3 10 8 10 11 0 2 -4 4 -10 4 -5 0 -10
-5 -10 -11z"/>
<path d="M2230 941 c0 -6 4 -13 10 -16 6 -3 7 1 4 9 -7 18 -14 21 -14 7z"/>
<path d="M611 836 c-9 -10 -8 -16 4 -26 10 -9 15 -9 15 -1 0 6 -5 11 -11 11
-8 0 -8 5 1 15 7 8 10 15 7 15 -2 0 -10 -6 -16 -14z"/>
<path d="M32 720 c0 -14 2 -19 5 -12 2 6 2 18 0 25 -3 6 -5 1 -5 -13z"/>
<path d="M2622 670 c0 -14 2 -19 5 -12 2 6 2 18 0 25 -3 6 -5 1 -5 -13z"/>
<path d="M4665 680 c-3 -6 1 -7 9 -4 18 7 21 14 7 14 -6 0 -13 -4 -16 -10z"/>
<path d="M925 599 c-4 -6 -5 -12 -2 -15 2 -3 7 2 10 11 7 17 1 20 -8 4z"/>
<path d="M5485 590 c2 -27 10 -33 12 -10 1 11 -2 22 -6 24 -4 3 -7 -4 -6 -14z"/>
<path d="M403 565 c0 -7 6 -11 14 -8 7 3 13 6 13 8 0 2 -6 5 -13 8 -8 3 -14
-1 -14 -8z"/>
<path d="M939 573 c0 -5 -2 -16 -4 -26 -2 -11 -1 -16 3 -13 8 8 14 46 7 46 -3
0 -5 -3 -6 -7z"/>
<path d="M3793 410 c0 -25 2 -35 4 -22 2 12 2 32 0 45 -2 12 -4 2 -4 -23z"/>
<path d="M5580 313 c0 -5 5 -15 10 -23 8 -12 10 -11 10 8 0 12 -4 22 -10 22
-5 0 -10 -3 -10 -7z"/>
<path d="M2625 200 c-3 -5 -1 -10 4 -10 6 0 11 5 11 10 0 6 -2 10 -4 10 -3 0
-8 -4 -11 -10z"/>
</g>
</svg>
